<?xml version="1.0" encoding="iso-8859-1"?>
<!-- Generator: Adobe Illustrator 19.0.0, SVG Export Plug-In . SVG Version: 6.00 Build 0)  -->
<svg xmlns="http://www.w3.org/2000/svg" xmlns:xlink="http://www.w3.org/1999/xlink" version="1.1" id="Layer_1" x="0px" y="0px" viewBox="0 0 440 440" style="enable-background:new 0 0 440 440;" xml:space="preserve" width="512px" height="512px">
<path d="M358.935,0.076H181.959C180.661,0.031,179.359,0,178.051,0L86.332,0.076H81.07c-0.013,0.004,0,15.004,0,15.004v14.996  c0.013,0.004,5.287,0,5.287,0h95.07c28.135,1.157,52.84,16.754,67.712,40H81.07v30h180.534c1.521,6.784,2.331,13.858,2.331,21.13  c0,50.277-38.522,91.18-85.872,91.18H81.07v30h116.993c47.35,0,85.872,40.915,85.872,91.207V440h30V333.594  c0-50.298-29.444-93.535-71.246-111.852c30.891-21.789,51.246-58.722,51.246-100.535c0-7.206-0.607-14.266-1.766-21.13h66.766v-30  h-75.831c-6.855-15.348-16.693-28.955-28.734-40h104.565V0.076z" fill="#fff"/>
</svg>
